<svg width="33" height="33" viewBox="0 0 33 33" fill="none" xmlns="http://www.w3.org/2000/svg">
<g clip-path="url(#clip0_1029_459)">
<path d="M12.028 29.4059C12.7662 29.4059 13.3647 28.8075 13.3647 28.0693C13.3647 27.3311 12.7662 26.7327 12.028 26.7327C11.2898 26.7327 10.6914 27.3311 10.6914 28.0693C10.6914 28.8075 11.2898 29.4059 12.028 29.4059Z" stroke="#C57E00" stroke-width="2.67327" stroke-linecap="round" stroke-linejoin="round"/>
<path d="M26.7351 29.4059C27.4733 29.4059 28.0717 28.8075 28.0717 28.0693C28.0717 27.3311 27.4733 26.7327 26.7351 26.7327C25.9969 26.7327 25.3984 27.3311 25.3984 28.0693C25.3984 28.8075 25.9969 29.4059 26.7351 29.4059Z" stroke="#C57E00" stroke-width="2.67327" stroke-linecap="round" stroke-linejoin="round"/>
<path d="M1.33594 1.33663H6.68247L10.2647 19.2342C10.3869 19.8495 10.7217 20.4023 11.2104 20.7957C11.6991 21.1892 12.3106 21.3982 12.9379 21.3861H25.93C26.5573 21.3982 27.1688 21.1892 27.6575 20.7957C28.1463 20.4023 28.481 19.8495 28.6033 19.2342L30.7419 8.0198H8.01911" stroke="#C57E00" stroke-width="2.67327" stroke-linecap="round" stroke-linejoin="round"/>
</g>
<defs>
<clipPath id="clip0_1029_459">
<rect width="32.0792" height="32.0792" fill="white"/>
</clipPath>
</defs>
</svg>
