<svg width="1562" height="270" viewBox="0 0 1562 270" fill="none" xmlns="http://www.w3.org/2000/svg">
<mask id="mask0_942_2363" style="mask-type:alpha" maskUnits="userSpaceOnUse" x="201" y="88" width="185" height="182">
<path d="M269.368 197.589C269.816 204.399 270.688 210.267 272.354 219.889C274.125 230.113 278.002 245.7 279.79 249.781C280.394 251.162 281.357 252.258 281.964 252.259C284.013 252.259 287.478 250.473 289.719 248.263L291.958 246.054L294.532 248.456C297.118 250.87 299.922 252.259 302.208 252.259C304.873 252.259 310.164 231.401 313.236 210.007C315.042 209.824 316.826 209.486 318.649 208.931C323.007 207.603 327.056 205.199 331.879 201.944V201.943C334.413 200.233 337.358 198.742 339.224 197.988L342.472 198.488L342.747 198.542C344.262 198.889 347.844 200.42 352.178 203.268V203.269C355.565 205.496 358.34 207.203 361.283 208.32C364.373 209.494 367.256 209.875 370.604 210.147V210.146C375.177 210.519 379.251 210.351 383.179 209.438C372.388 246.883 340.301 269.284 294.27 269.284C242.075 269.284 208.464 241.138 201.125 197.824L204.591 198.354L204.867 198.408C206.39 198.755 209.98 200.283 214.315 203.118V203.119C217.706 205.337 220.481 207.036 223.423 208.147C226.511 209.314 229.393 209.693 232.742 209.964L233.675 210.032C238.313 210.337 242.572 210.071 246.789 208.881C251.282 207.613 255.291 205.419 259.383 202.457C263.457 199.508 266.622 198.083 269.368 197.589ZM267.331 179.262C268.387 179.092 271.134 179.001 273.437 179.061C279.821 179.224 282.948 180.469 292.114 186.497C294.771 188.244 297.805 190.035 298.857 190.476C302.524 192.013 311.419 192.194 315.047 190.807C315.971 190.453 318.724 188.816 321.165 187.168C326.851 183.329 330.374 181.356 333.63 180.188C335.839 179.395 336.743 179.253 339.625 179.249C340.167 179.248 340.686 179.259 341.187 179.283H343.681V179.284H341.203C346.031 179.522 349.229 181.059 356.959 186.463C364.64 191.832 364.254 191.698 371.976 191.698C378.36 191.698 378.433 191.69 380.349 190.766C381.411 190.253 382.945 189.394 383.758 188.856C384.57 188.32 385.33 187.88 385.448 187.879C385.565 187.879 385.662 190.704 385.662 194.157V200.437L383.327 201.424C380.326 202.693 378.772 203.13 375.487 203.252C375.813 203.247 376.136 203.239 376.454 203.226H376.455C376.111 203.24 375.763 203.249 375.41 203.254C374.404 203.29 373.235 203.299 371.814 203.292C363.835 203.251 362.16 202.71 354.426 197.683C348.073 193.553 344.911 192.157 340.109 191.36C337.216 190.88 337.013 190.886 335.451 191.521C332.651 192.66 329.938 194.179 325.766 196.946C321.268 199.928 316.837 202.191 314.173 202.865C311.772 203.473 303.532 203.369 300.191 202.688C297.026 202.044 294.644 200.908 289.982 197.816C282.052 192.558 278.026 190.888 272.632 190.62C266.978 190.34 262.997 191.791 255.808 196.754C249.184 201.326 246.26 202.577 240.836 203.161C236.855 203.589 230.945 203.084 227.765 202.042C226.434 201.606 224.283 200.582 222.985 199.767C221.688 198.951 219.147 197.352 217.341 196.214C213.084 193.532 209.231 191.932 205.479 191.288L202.466 190.771L202.301 189.076C202.21 188.144 202.053 185.55 201.952 183.312L201.769 179.245L205.079 179.253C206.899 179.258 209.041 179.414 209.838 179.602C212.251 180.168 216.171 182.324 221.501 186.014C224.285 187.941 227.287 189.896 228.172 190.358C230.089 191.36 233.039 191.849 237.209 191.855C243.379 191.865 244.961 191.286 252.428 186.281C259.776 181.357 262.612 180.021 267.331 179.262ZM238.738 191.806C238.016 191.822 237.22 191.826 236.322 191.827L236.321 191.826C237.219 191.825 238.016 191.822 238.738 191.806ZM246.104 190.095C246.008 190.145 245.913 190.193 245.819 190.241C245.923 190.188 246.028 190.134 246.134 190.077C246.123 190.083 246.114 190.089 246.104 190.095ZM338.967 157.327C342.556 157.327 350.665 160.642 356.519 164.501C360.113 166.871 364.55 169.052 367.307 169.803C372.236 171.146 377.545 170.387 382.775 167.591C384.109 166.878 385.304 166.294 385.432 166.293C385.558 166.293 385.662 169.119 385.662 172.572V178.851L383.327 179.839C380.137 181.189 379.186 181.472 375.878 182.059C368.212 183.418 363.065 181.983 353.556 175.834C348.927 172.841 345.471 170.874 343.306 170.002C341.792 169.392 341.494 169.378 338.77 169.796C334.031 170.522 331.785 171.537 324.989 176.022C320.766 178.81 317.148 180.602 313.684 181.622C309.872 182.745 304.153 182.672 300.235 181.451C296.567 180.308 293.109 178.496 288.729 175.423C281.677 170.474 281.05 170.278 272.267 170.278C263.934 170.278 263.276 170.482 255.962 175.33C249.275 179.761 245.187 181.433 239.015 182.258C232.419 183.14 227.517 181.539 217.888 175.359C210.96 170.914 207.883 169.458 203.604 168.602L201.717 168.224L201.861 163.522C202.014 158.554 202.161 157.796 203.021 157.533C204.022 157.227 207.913 157.698 209.927 158.368C212.604 159.259 217.38 161.748 221.118 164.201C230.414 170.3 236.901 171.738 243.998 169.272C246.881 168.271 248.391 167.416 253.538 163.872C261.382 158.471 264.654 157.472 273.598 157.751C281.572 157.999 282.417 158.313 291.359 164.345C299.511 169.843 299.266 169.753 306.586 169.894C314.798 170.051 315.171 169.94 322.139 165.229C330.256 159.742 335.397 157.327 338.967 157.327ZM381.88 181.194C381.664 181.256 381.448 181.313 381.23 181.37C381.633 181.265 382.032 181.154 382.43 181.032L381.88 181.194ZM336.26 170.62C335.807 170.763 335.343 170.929 334.866 171.116C335.105 171.022 335.34 170.933 335.572 170.851L336.26 170.62ZM294.27 88.4346C343.931 88.4346 377.699 115.641 385.461 159.468L384.085 160.36C380.093 162.947 376.958 163.782 374.078 163.651C371.081 163.516 367.444 162.294 362.572 159.1C356.47 155.098 350.552 152.508 345.364 151.37C344.446 151.003 343.625 150.862 343.079 150.796C342.184 150.688 341.259 150.708 340.866 150.712H340.865C340.759 150.713 340.651 150.719 340.555 150.722C340.336 150.712 340.111 150.704 339.881 150.701H339.878C339.569 150.698 338.607 150.675 337.709 150.801C337.311 150.857 336.542 150.991 335.654 151.364C330.929 152.482 326.161 155.007 320.791 158.626L319.61 159.433C317.265 161.054 315.985 161.889 315.154 162.355C314.976 158.862 314.724 155.788 314.395 153.424C312.39 139.052 308.735 128.209 302.819 119.079C300.095 114.874 293.368 108.245 291.826 108.245C291.335 108.246 288.885 110.295 286.381 112.797C278.776 120.398 273.335 132.529 270.202 148.873C270.075 149.536 269.96 150.186 269.856 150.847C266.762 150.947 263.812 151.376 260.843 152.291C256.614 153.595 252.769 155.753 248.686 158.629L247.865 159.214C243.331 162.486 239.871 163.612 236.806 163.616C233.671 163.62 229.874 162.454 224.684 159.067H224.685C216.885 153.977 210.061 150.784 203.349 150.712H203.345C203.331 150.712 203.317 150.711 203.302 150.711C214.104 111.759 247.825 88.4346 294.27 88.4346Z" fill="black"/>
</mask>
<g mask="url(#mask0_942_2363)">
<rect width="187.482" height="191.02" transform="matrix(-1 0 0 1 385.672 79.4971)" fill="#CB9B44"/>
</g>
<mask id="mask1_942_2363" style="mask-type:alpha" maskUnits="userSpaceOnUse" x="0" y="0" width="1562" height="268">
<path d="M92.8975 0C148.706 0.000170187 175.197 33.5562 175.197 61.1074C175.197 82.3007 159.656 90.0713 147.293 90.0713C110.911 90.0711 113.737 25.7852 81.5938 25.7852C67.465 25.7853 62.873 38.1484 62.873 49.8047C62.8734 110.558 178.729 113.031 178.729 193.565C178.729 238.425 142.701 267.742 86.5391 267.742C26.4914 267.742 0 233.833 0 206.635C3.15524e-05 185.088 15.5418 177.671 28.2578 177.671C64.2859 177.671 61.4604 241.957 98.9014 241.957C111.97 241.957 122.921 233.48 122.921 215.466C122.921 155.771 7.06445 157.184 7.06445 73.8232C7.06457 29.6707 39.9143 0 92.8975 0ZM461.628 90.4248C472.931 90.4249 478.582 95.7234 478.582 107.026V192.859C478.582 214.052 485.294 225.355 497.656 225.355C510.725 225.355 523.795 211.58 523.795 190.033V122.568C523.795 108.793 509.666 113.384 509.666 98.9023C509.666 93.9573 511.432 90.4249 518.496 90.4248H571.833C581.37 90.4249 586.315 95.0171 586.315 104.907V195.685C586.315 223.942 588.435 228.534 593.026 228.534C597.618 228.534 599.384 222.53 601.15 218.645C605.742 208.048 612.1 209.107 609.628 225.355C605.742 249.728 587.728 267.742 563.355 267.742C545.341 267.742 532.625 258.205 526.974 237.012C513.551 256.086 492.004 267.742 466.926 267.742C431.604 267.742 415.709 244.429 415.709 208.048V122.568C415.709 108.793 401.934 113.384 401.934 99.9619C401.934 93.9572 403.699 90.4249 410.764 90.4248H461.628ZM852.882 0C908.69 0.000192551 935.182 33.5562 935.182 61.1074C935.182 82.3006 919.64 90.0712 907.277 90.0713C870.896 90.071 873.721 25.7853 841.578 25.7852C827.449 25.7853 822.857 38.1484 822.857 49.8047C822.858 110.558 938.714 113.031 938.714 193.565C938.714 238.425 902.686 267.742 846.523 267.742C786.476 267.742 759.984 233.833 759.984 206.635C759.984 185.088 775.526 177.671 788.242 177.671C824.27 177.671 821.445 241.957 858.887 241.957C871.956 241.957 882.905 233.48 882.905 215.466C882.905 155.771 767.049 157.184 767.049 73.8232C767.049 29.6707 799.899 0 852.882 0ZM1027.79 90.4248C1039.09 90.425 1044.74 95.7234 1044.74 107.026V192.859C1044.74 214.053 1051.46 225.355 1063.82 225.355C1076.89 225.355 1089.96 211.58 1089.96 190.033V122.568C1089.96 108.793 1075.83 113.384 1075.83 98.9023C1075.83 93.9573 1077.59 90.4249 1084.66 90.4248H1138C1147.53 90.4249 1152.48 95.0172 1152.48 104.907V195.685C1152.48 223.942 1154.6 228.534 1159.19 228.534C1163.78 228.534 1165.55 222.53 1167.31 218.645C1171.9 208.048 1178.26 209.107 1175.79 225.355C1171.9 249.728 1153.89 267.742 1129.52 267.742C1111.5 267.742 1098.79 258.205 1093.14 237.012C1079.71 256.086 1058.17 267.742 1033.09 267.742C997.766 267.742 981.871 244.43 981.871 208.048V122.568C981.871 108.793 968.095 113.384 968.095 99.9619C968.095 93.9572 969.861 90.4248 976.926 90.4248H1027.79ZM700.201 3.17871C710.091 3.17875 715.037 8.12449 715.037 18.0146V231.714C715.037 245.842 728.812 241.251 728.812 254.319C728.812 260.677 727.046 264.21 719.981 264.21H647.218C641.213 264.21 638.388 261.384 638.388 255.38C638.388 240.191 652.163 246.196 652.163 231.714V35.6758C652.163 21.9001 638.388 26.1385 638.388 13.0693C638.388 6.71148 640.154 3.17884 647.218 3.17871H700.201ZM1329.94 86.8926C1348.39 86.8927 1362.5 96.9161 1368.49 112.563C1362.72 106.758 1354.73 103.163 1345.9 103.163C1328.37 103.163 1314.15 117.336 1314.07 134.85C1310.89 129.997 1306.95 126.453 1300.27 126.453C1290.03 126.453 1282.26 134.224 1282.26 164.248V231.714C1282.26 245.842 1296.03 241.251 1296.03 254.319C1296.03 260.677 1294.27 264.21 1287.2 264.21H1214.44C1208.44 264.21 1205.61 261.384 1205.61 255.38C1205.61 240.191 1219.38 246.196 1219.38 231.714V122.568C1219.38 108.793 1205.61 113.384 1205.61 99.9619C1205.61 93.9572 1207.38 90.4249 1214.44 90.4248H1267.42C1277.31 90.4248 1282.26 95.0171 1282.26 104.907V110.205C1295.33 94.3101 1313.7 86.8926 1329.94 86.8926ZM1492.15 0C1534.18 7.75151e-05 1561.02 22.6064 1561.02 49.4512C1561.02 67.4654 1549.72 78.4149 1535.59 78.415C1504.51 78.415 1510.87 25.7865 1494.97 25.7852C1486.5 25.7852 1484.02 40.2675 1484.02 70.6445V90.4248H1526.06C1534.18 90.4248 1538.42 94.3105 1538.42 102.435C1538.42 110.559 1534.18 114.797 1526.06 114.797H1484.02V231.714C1484.02 245.842 1498.15 241.251 1498.15 255.38C1498.15 260.678 1496.38 264.21 1489.32 264.21H1416.2C1410.2 264.21 1407.73 261.384 1407.73 254.673C1407.73 240.191 1421.5 246.196 1421.5 231.714V114.797H1409.14C1401.37 114.797 1397.13 110.559 1397.13 102.435C1397.13 94.3105 1401.37 90.4248 1409.14 90.4248H1421.5V74.8828C1421.5 21.1934 1451.17 0 1492.15 0ZM1347.69 110.239C1362.34 110.239 1374.22 122.117 1374.22 136.77C1374.22 151.422 1362.34 163.301 1347.69 163.301C1333.04 163.301 1321.16 151.422 1321.16 136.77C1321.16 122.117 1333.04 110.239 1347.69 110.239Z" fill="black"/>
</mask>
<g mask="url(#mask1_942_2363)">
<rect width="1616.59" height="456.325" transform="matrix(-1 0 0 1 1563.63 -19.5479)" fill="#CB9B44"/>
</g>
</svg>
