<svg width="36" height="36" viewBox="0 0 36 36" fill="none" xmlns="http://www.w3.org/2000/svg">
<path d="M25.5 3H10.5C6.35786 3 3 6.35786 3 10.5V25.5C3 29.6421 6.35786 33 10.5 33H25.5C29.6421 33 33 29.6421 33 25.5V10.5C33 6.35786 29.6421 3 25.5 3Z" stroke="white" stroke-width="2.56631" stroke-linecap="round" stroke-linejoin="round"/>
<path d="M24.0015 17.0555C24.1866 18.3038 23.9734 19.5788 23.3922 20.699C22.8109 21.8192 21.8912 22.7276 20.764 23.295C19.6367 23.8624 18.3592 24.0598 17.1132 23.8594C15.8672 23.6589 14.7162 23.0706 13.8238 22.1782C12.9314 21.2858 12.3431 20.1348 12.1426 18.8888C11.9421 17.6428 12.1396 16.3653 12.707 15.238C13.2744 14.1107 14.1828 13.1911 15.303 12.6098C16.4232 12.0286 17.6981 11.8153 18.9465 12.0005C20.2199 12.1893 21.3988 12.7826 22.3091 13.6929C23.2193 14.6032 23.8127 15.7821 24.0015 17.0555Z" stroke="white" stroke-width="2.56631" stroke-linecap="round" stroke-linejoin="round"/>
<path d="M26.2539 9.75H26.2695" stroke="white" stroke-width="2.56631" stroke-linecap="round" stroke-linejoin="round"/>
</svg>
