<svg width="1668" height="288" viewBox="0 0 1668 288" fill="none" xmlns="http://www.w3.org/2000/svg">
<mask id="mask0_1029_413" style="mask-type:alpha" maskUnits="userSpaceOnUse" x="214" y="94" width="198" height="194">
<path d="M287.596 211.619C288.074 218.897 289.006 225.167 290.786 235.448C292.678 246.374 296.822 263.028 298.732 267.388C299.378 268.864 300.407 270.036 301.055 270.036C303.244 270.036 306.947 268.128 309.341 265.766L311.733 263.406L314.484 265.973C317.247 268.553 320.243 270.036 322.686 270.036C325.533 270.036 331.187 247.748 334.47 224.887C336.399 224.691 338.306 224.332 340.254 223.739C344.91 222.321 349.236 219.751 354.39 216.273H354.391C357.098 214.446 360.244 212.852 362.237 212.047L365.708 212.581H365.709C367.115 212.797 371.14 214.442 376.08 217.688V217.689C379.7 220.069 382.665 221.893 385.81 223.087C389.111 224.34 392.192 224.748 395.77 225.039L396.54 225.096C400.911 225.401 404.863 225.221 408.673 224.398C396.972 264.044 362.786 287.738 313.85 287.738C258.259 287.738 222.396 257.857 214.398 211.829L218.379 212.437L218.675 212.495C220.303 212.866 224.137 214.499 228.77 217.528V217.529C232.392 219.9 235.358 221.713 238.502 222.901C241.802 224.148 244.88 224.553 248.459 224.843V224.844C253.805 225.276 258.662 225.042 263.469 223.685C268.27 222.33 272.553 219.986 276.926 216.821C281.28 213.67 284.661 212.147 287.596 211.619ZM285.421 192.037C286.549 191.856 289.485 191.758 291.945 191.821C298.767 191.996 302.108 193.326 311.902 199.767C314.741 201.634 317.983 203.547 319.107 204.018C323.025 205.661 332.53 205.856 336.406 204.373C337.393 203.995 340.336 202.245 342.944 200.484C349.02 196.383 352.784 194.275 356.263 193.026C358.623 192.179 359.589 192.028 362.669 192.023C368.851 192.015 372.066 193.353 381.19 199.731C389.398 205.468 388.986 205.325 397.236 205.325C404.058 205.325 404.136 205.317 406.183 204.329C407.318 203.781 408.958 202.862 409.826 202.288C410.694 201.714 411.507 201.244 411.633 201.244C411.758 201.246 411.86 204.265 411.86 207.953V214.662L409.366 215.718C405.16 217.497 403.614 217.748 397.064 217.714C388.538 217.67 386.748 217.092 378.483 211.72C371.695 207.307 368.317 205.815 363.187 204.964C360.095 204.451 359.879 204.459 358.209 205.138C355.217 206.354 352.318 207.977 347.859 210.933C343.054 214.12 338.319 216.537 335.473 217.258C332.907 217.907 324.103 217.796 320.533 217.069C317.15 216.38 314.606 215.165 309.624 211.862C301.15 206.243 296.848 204.459 291.085 204.173C285.044 203.873 280.79 205.424 273.107 210.727C266.03 215.613 262.906 216.95 257.11 217.574C252.857 218.032 246.541 217.491 243.143 216.378C241.72 215.912 239.423 214.817 238.036 213.946C236.65 213.074 233.935 211.366 232.005 210.15C227.456 207.284 223.339 205.575 219.33 204.888L216.11 204.335L215.934 202.523C215.837 201.527 215.669 198.756 215.562 196.365L215.365 192.018L218.902 192.027C220.847 192.032 223.136 192.199 223.987 192.399C226.566 193.005 230.755 195.308 236.45 199.251C239.425 201.31 242.632 203.4 243.577 203.894C245.626 204.965 248.779 205.486 253.235 205.493C259.828 205.503 261.517 204.884 269.495 199.537C277.347 194.275 280.378 192.848 285.421 192.037ZM266.621 201.261C266.442 201.378 266.264 201.489 266.093 201.599C266.291 201.472 266.495 201.342 266.704 201.206L266.621 201.261ZM361.966 168.598C365.801 168.598 374.466 172.14 380.721 176.264C384.561 178.796 389.302 181.127 392.247 181.93C397.515 183.365 403.188 182.554 408.776 179.566C410.203 178.804 411.48 178.18 411.615 178.18C411.75 178.186 411.86 181.203 411.86 184.888V191.597L409.366 192.653C405.957 194.096 404.941 194.398 401.406 195.025C393.215 196.478 387.716 194.944 377.555 188.374C372.608 185.176 368.915 183.075 366.602 182.142C364.984 181.491 364.666 181.476 361.755 181.922C356.692 182.698 354.292 183.783 347.029 188.576C342.517 191.554 338.652 193.468 334.95 194.558C330.877 195.758 324.766 195.681 320.579 194.376C316.659 193.154 312.965 191.219 308.285 187.935C300.75 182.647 300.079 182.437 290.694 182.437C281.791 182.437 281.088 182.655 273.272 187.835C266.127 192.57 261.759 194.356 255.164 195.238C248.116 196.181 242.879 194.47 232.59 187.867C225.187 183.116 221.899 181.56 217.326 180.645L215.31 180.242L215.465 175.22C215.628 169.91 215.785 169.1 216.704 168.819C217.773 168.492 221.932 168.996 224.083 169.712C226.943 170.664 232.047 173.323 236.041 175.944C245.973 182.461 252.906 183.998 260.489 181.363C263.57 180.293 265.183 179.38 270.683 175.593C279.064 169.821 282.561 168.754 292.117 169.052C300.637 169.317 301.541 169.653 311.096 176.097C319.806 181.972 319.544 181.876 327.366 182.026C336.141 182.195 336.539 182.076 343.983 177.043C352.657 171.179 358.151 168.599 361.966 168.598ZM401.107 195.362C400.415 195.429 399.738 195.474 399.071 195.492C399.738 195.474 400.415 195.43 401.107 195.362ZM401.443 195.33C401.353 195.34 401.263 195.347 401.174 195.356C401.373 195.336 401.573 195.314 401.775 195.29C401.664 195.303 401.554 195.318 401.443 195.33ZM403.095 195.113C402.942 195.136 402.79 195.156 402.64 195.178C402.851 195.148 403.063 195.117 403.277 195.083C403.216 195.092 403.156 195.104 403.095 195.113ZM404.817 194.814C404.584 194.859 404.352 194.9 404.123 194.94C404.352 194.9 404.584 194.858 404.817 194.813C404.907 194.796 404.997 194.776 405.086 194.759C404.996 194.776 404.907 194.797 404.817 194.814ZM388.863 180.13C389.205 180.292 389.544 180.447 389.882 180.595C390.051 180.669 390.22 180.741 390.388 180.811V180.812C390.052 180.671 389.714 180.523 389.374 180.368L388.863 180.13ZM313.85 94.4949C367.159 94.495 403.328 123.834 411.402 171.044L410.174 171.841C405.908 174.605 402.558 175.497 399.48 175.357C396.478 175.221 392.876 174.065 388.148 171.109L387.188 170.494C380.665 166.217 374.34 163.448 368.796 162.232C367.817 161.841 366.941 161.691 366.358 161.621C365.402 161.505 364.413 161.526 363.993 161.53H363.991C363.879 161.531 363.766 161.538 363.664 161.541C363.429 161.531 363.187 161.522 362.94 161.519H362.937C362.606 161.516 361.579 161.49 360.619 161.625C360.194 161.685 359.373 161.829 358.425 162.227C353.009 163.509 347.54 166.52 341.28 170.848C338.776 172.58 337.408 173.473 336.521 173.971C336.33 170.239 336.059 166.954 335.707 164.428C333.565 149.071 329.66 137.485 323.339 127.73C320.427 123.237 313.24 116.153 311.593 116.153C311.069 116.154 308.449 118.342 305.773 121.016C297.647 129.138 291.834 142.102 288.487 159.565C288.351 160.274 288.229 160.969 288.118 161.675C284.811 161.782 281.659 162.24 278.485 163.219C273.666 164.704 269.313 167.228 264.619 170.615H264.618C259.773 174.112 256.078 175.315 252.802 175.319C249.452 175.324 245.395 174.078 239.849 170.459H239.85C231.515 165.02 224.224 161.607 217.051 161.53H217.048C216.935 161.529 216.75 161.524 216.514 161.524C227.91 119.612 264.03 94.4951 313.85 94.4949Z" fill="#5C3B01"/>
</mask>
<g mask="url(#mask0_1029_413)">
<rect width="200.33" height="204.11" transform="matrix(-1 0 0 1 411.867 85.4352)" fill="#5C3B01" fill-opacity="0.02"/>
</g>
<mask id="mask1_1029_413" style="mask-type:alpha" maskUnits="userSpaceOnUse" x="0" y="0" width="1668" height="287">
<path d="M99.2637 3.05176e-05C158.897 3.05176e-05 187.204 35.8556 187.204 65.295C187.204 87.9406 170.598 96.2442 157.388 96.2442C118.513 96.2442 121.532 27.5533 87.1865 27.5528C72.0894 27.5528 67.1826 40.7627 67.1826 53.2178C67.1829 118.135 190.979 120.778 190.979 206.831C190.978 254.764 152.481 286.091 92.4697 286.091C28.3073 286.091 0 249.857 0 220.795C0.00022592 197.772 16.6071 189.847 30.1943 189.847C68.6918 189.847 65.6728 258.538 105.68 258.538C119.644 258.538 131.345 249.48 131.345 230.231C131.345 166.446 7.54903 167.956 7.54883 78.8828C7.54883 31.7044 42.6496 8.54232e-05 99.2637 3.05176e-05ZM492.968 96.6221C505.045 96.6221 511.084 102.283 511.084 114.36V206.076C511.084 228.721 518.256 240.799 531.466 240.799C545.43 240.799 559.395 226.079 559.396 203.057V130.968C559.395 116.248 544.298 121.154 544.298 105.68C544.298 100.396 546.186 96.6223 553.733 96.6221H610.726C620.916 96.6222 626.2 101.529 626.2 112.097V209.095C626.2 239.288 628.465 244.196 633.371 244.196C638.277 244.196 640.165 237.78 642.052 233.628C646.958 222.305 653.752 223.437 651.11 240.799C646.959 266.841 627.709 286.091 601.667 286.091C582.418 286.091 568.831 275.899 562.792 253.254C548.45 273.635 525.426 286.091 498.629 286.091C460.887 286.091 443.902 261.18 443.902 222.305V130.968C443.902 116.248 429.183 121.154 429.183 106.813C429.183 100.396 431.07 96.6223 438.618 96.6221H492.968ZM911.034 3.05176e-05C970.667 0.000205154 998.974 35.8557 998.975 65.295C998.975 87.9406 982.367 96.2442 969.157 96.2442C930.283 96.2433 933.302 27.5528 898.956 27.5528C883.859 27.553 878.952 40.7628 878.952 53.2178C878.952 118.135 1002.75 120.778 1002.75 206.831C1002.75 254.764 964.251 286.091 904.24 286.091C840.078 286.091 811.771 249.857 811.771 220.795C811.771 197.773 828.378 189.847 841.965 189.847C880.462 189.847 877.443 258.538 917.45 258.538C931.415 258.538 943.115 249.48 943.115 230.231C943.115 166.446 819.319 167.956 819.318 78.8828C819.318 31.7045 854.42 0.000184599 911.034 3.05176e-05ZM1097.93 96.6221C1110.01 96.6223 1116.04 102.283 1116.04 114.36V206.076C1116.05 228.721 1123.22 240.799 1136.43 240.799C1150.39 240.799 1164.36 226.08 1164.36 203.057V130.968C1164.36 116.248 1149.26 121.154 1149.26 105.68C1149.26 100.396 1151.15 96.6222 1158.69 96.6221H1215.69C1225.88 96.6221 1231.16 101.529 1231.16 112.097V209.095C1231.16 239.288 1233.42 244.196 1238.33 244.196C1243.24 244.196 1245.12 237.78 1247.01 233.628C1251.92 222.305 1258.71 223.437 1256.07 240.799C1251.92 266.841 1232.67 286.091 1206.63 286.091C1187.38 286.091 1173.79 275.899 1167.75 253.254C1153.41 273.635 1130.39 286.091 1103.59 286.091C1065.85 286.091 1048.86 261.18 1048.86 222.305V130.968C1048.86 116.248 1034.14 121.154 1034.14 106.813C1034.14 100.396 1036.03 96.6222 1043.58 96.6221H1097.93ZM747.891 3.39749C758.459 3.39749 763.742 8.68113 763.742 19.2491V247.593C763.742 262.69 778.462 257.783 778.462 271.748C778.462 278.542 776.575 282.316 769.026 282.316H691.276C684.861 282.316 681.841 279.297 681.841 272.881C681.841 256.652 696.561 263.067 696.561 247.593V38.1201C696.56 23.4009 681.841 27.9296 681.841 13.9649C681.841 7.1715 683.728 3.39767 691.276 3.39749H747.891ZM1420.79 92.8477C1440.76 92.8477 1455.99 103.853 1462.23 120.967C1456.05 114.647 1447.44 110.723 1437.9 110.723C1419.3 110.723 1404.18 125.659 1403.89 144.194C1400.49 138.957 1396.27 135.119 1389.08 135.119C1378.14 135.119 1369.83 143.423 1369.83 175.504V247.593C1369.83 262.69 1384.55 257.783 1384.55 271.748C1384.55 278.542 1382.67 282.316 1375.12 282.316H1297.37C1290.95 282.316 1287.93 279.297 1287.93 272.881C1287.93 256.652 1302.65 263.067 1302.65 247.593V130.968C1302.65 116.248 1287.93 121.154 1287.93 106.813C1287.93 100.396 1289.82 96.6223 1297.37 96.6221H1353.98C1364.55 96.6221 1369.83 101.529 1369.83 112.097V117.758C1383.8 100.774 1403.43 92.8478 1420.79 92.8477ZM1594.11 3.05176e-05C1639.02 0.000196609 1667.7 24.1556 1667.71 52.8399C1667.71 72.0887 1655.63 83.7891 1640.53 83.7891C1607.32 83.7883 1614.11 27.5528 1597.13 27.5528C1588.07 27.5537 1585.43 43.0279 1585.43 75.4854V96.6221H1630.34C1639.02 96.6221 1643.55 100.773 1643.55 109.454C1643.55 118.135 1639.02 122.664 1630.34 122.664H1585.43V247.593C1585.43 262.69 1600.52 257.784 1600.52 272.881C1600.52 278.542 1598.64 282.316 1591.09 282.316H1512.96C1506.54 282.316 1503.9 279.297 1503.9 272.126C1503.9 256.652 1518.62 263.067 1518.62 247.593V122.664H1505.41C1497.11 122.664 1492.58 118.135 1492.58 109.454C1492.58 100.774 1497.11 96.6224 1505.41 96.6221H1518.62V80.0147C1518.62 22.6461 1550.33 0.000172822 1594.11 3.05176e-05ZM1439.81 118.284C1455.47 118.284 1468.16 130.976 1468.16 146.633C1468.16 162.289 1455.47 174.981 1439.81 174.981C1424.16 174.981 1411.46 162.289 1411.46 146.633C1411.46 130.976 1424.16 118.284 1439.81 118.284Z" fill="#5C3B01"/>
</mask>
<g mask="url(#mask1_1029_413)">
<rect width="1727.38" height="487.597" transform="matrix(-1 0 0 1 1670.55 -20.3972)" fill="#5C3B01" fill-opacity="0.02"/>
</g>
</svg>
