<svg width="60" height="61" viewBox="0 0 60 61" fill="none" xmlns="http://www.w3.org/2000/svg">
<path fill-rule="evenodd" clip-rule="evenodd" d="M24.8111 0.250211C18.4395 1.41893 13.5353 4.07719 8.77019 8.94456C4.77963 13.0215 2.62692 16.5985 1.10273 21.6851C-0.32684 26.4554 -0.372524 34.0585 1.00117 38.5546C4.10298 48.7068 11.0767 55.9867 20.8393 59.2641C23.6206 60.1974 24.8548 60.3645 29.2006 60.3949C35.1562 60.4361 37.893 59.8174 42.8641 57.3058C56.165 50.5856 62.4934 34.5997 57.5737 20.148C54.4629 11.0112 46.3778 3.42846 36.9957 0.849362C34.1031 0.0543829 27.6181 -0.264775 24.8111 0.250211ZM24.3054 2.90681C14.276 5.05633 6.47921 12.3078 3.43735 22.3155C2.08814 26.7553 2.08814 33.7085 3.43735 38.1484C4.90077 42.9628 6.90829 46.2932 10.6027 50.0356C13.1694 52.6359 14.6781 53.7688 17.3725 55.1179C32.4247 62.6561 50.1126 55.1517 55.5034 38.9404C56.5206 35.8813 56.6699 34.8097 56.6882 30.4402C56.7111 24.9246 56.1841 22.4755 53.9825 17.8631C50.6861 10.9566 43.9845 5.34008 36.6396 3.32846C33.329 2.42182 27.4985 2.22266 24.3054 2.90681ZM21.3059 6.52338C20.4335 7.79584 21.1102 9.08081 22.5589 8.90331C23.9252 8.73582 24.6704 7.58418 24.0586 6.58671C23.386 5.49091 22.0352 5.45966 21.3059 6.52338ZM30.2202 6.4638C28.9257 6.99878 28.1071 8.22458 27.842 10.0241C27.4985 12.3561 26.0469 13.5707 23.727 13.4674C21.5278 13.3699 20.6354 14.0715 20.6354 15.8985C20.6354 16.946 20.9025 17.4752 21.702 18.0102C22.6568 18.6493 22.8815 18.6601 23.8433 18.1118C24.5028 17.736 25.1203 16.851 25.4417 15.8223C26.1603 13.5203 27.7775 12.5691 30.3569 12.9311C31.9675 13.1574 32.4725 13.0532 33.4069 12.3024C34.7035 11.2608 35.5421 11.4466 36.1995 12.9211C36.4561 13.4961 37.0051 14.0765 37.4199 14.2107C39.4796 14.8786 40.9969 12.6416 39.5738 11.0349C38.9677 10.3508 38.5285 10.252 37.0769 10.4745C35.3691 10.7362 35.2986 10.7016 34.739 9.33414C33.7727 6.9717 31.8876 5.77423 30.2202 6.4638ZM44.4739 12.3403C43.6602 13.2586 43.9057 14.1365 45.2125 14.9786C45.7073 15.2973 46.0882 15.209 46.7147 14.6294C47.7503 13.6724 47.7735 13.064 46.8085 12.172C45.8333 11.2703 45.3932 11.302 44.4739 12.3403ZM11.8341 17.0735C9.5435 18.0922 9.02959 21.2926 10.8568 23.1592C11.4813 23.7971 12.2167 23.9821 14.1279 23.9821C16.2023 23.9821 16.7529 24.1446 17.5948 25.005C18.1454 25.5675 18.5961 26.4758 18.5961 27.0237C18.5961 28.1999 19.7564 29.3986 20.8956 29.3986C21.8826 29.3986 22.7069 28.7332 23.6556 27.172C24.3037 26.1049 24.544 26.0079 26.0743 26.1979C30.334 26.7258 31.0078 27.1857 34.9629 32.2677C37.0279 34.921 37.3579 35.5868 37.3579 37.0988C37.3579 39.8704 39.2753 41.0645 41.3456 39.5829C41.8444 39.2263 42.2523 38.5579 42.2523 38.0975C42.2523 35.6222 44.8067 33.9222 48.3621 34.0314C50.3113 34.091 51.1074 33.9235 51.9594 33.2735C54.3585 31.444 53.9531 28.1732 51.1547 26.7753C49.7904 26.0941 49.5261 26.0829 48.1985 26.6495C46.6519 27.3099 46.1376 28.1766 45.7106 30.8411C45.31 33.3385 43.1679 35.2318 40.7419 35.2318C38.6108 35.2318 38.0129 34.7093 33.9669 29.3107C31.7844 26.3983 31.618 26.0258 31.8754 24.6246C32.1054 23.3721 31.9891 22.9217 31.2183 22.0838C29.4616 20.1734 27.4667 20.8684 25.8296 23.9617C25.1611 25.2241 25 25.302 23.5863 25.0491C22.7485 24.8996 21.2815 24.6729 20.3266 24.5454C18.2208 24.265 16.9646 22.8559 16.9646 20.7734C16.9646 18.8076 16.3279 17.766 14.7018 17.0718C13.0805 16.3802 13.3933 16.3798 11.8341 17.0735ZM34.927 18.3372C33.8433 19.6709 35.4348 21.7196 36.848 20.8105C38.2601 19.9018 37.7572 17.7322 36.1343 17.7322C35.7407 17.7322 35.1974 18.0043 34.927 18.3372ZM42.7417 20.3155C42.4725 20.5905 42.2523 21.3967 42.2523 22.1071C42.2523 23.7454 41.6099 24.3987 39.9984 24.3987C38.555 24.3987 36.95 25.8445 36.95 27.1453C36.95 28.629 38.11 29.8153 39.5612 29.8153C41.3268 29.8153 42.2523 28.7224 42.2523 26.6366C42.2523 24.7821 42.811 23.9821 44.106 23.9821C45.0918 23.9821 46.3309 22.7817 46.3309 21.8263C46.3309 20.2984 43.8009 19.2335 42.7417 20.3155ZM6.2194 29.3274C5.32413 30.3377 5.36777 31.1894 6.36174 32.1085C7.10038 32.791 7.34144 32.8093 8.86074 32.2973C10.4763 31.7523 10.5717 31.7702 11.2855 32.7519C13.2506 35.4547 14.2853 35.8518 16.0579 34.583C17.888 33.2739 16.8312 29.8153 14.601 29.8153C14.1218 29.8153 13.0715 30.1357 12.2672 30.5277L10.805 31.2398L9.58143 29.9028C8.19632 28.3882 7.20194 28.2182 6.2194 29.3274ZM26.5886 30.7761C25.7019 31.4385 25.8508 33.0856 26.8553 33.7289C28.4529 34.7518 30.0791 31.9185 28.5496 30.7761C28.1487 30.4769 27.7078 30.2319 27.5691 30.2319C27.4304 30.2319 26.9895 30.4769 26.5886 30.7761ZM20.5293 36.5172C20.1349 36.7522 19.5562 37.5696 19.2434 38.3342C18.4798 40.2012 16.5987 40.865 14.3408 40.0642C12.1991 39.3042 10.5897 39.88 9.73478 41.7116C9.19069 42.877 9.17275 43.2882 9.61895 44.3878C10.2418 45.924 12.1367 47.0594 13.4162 46.6636C14.7723 46.2436 16.0763 44.8519 16.363 43.5178C16.5041 42.8616 17.1074 41.9333 17.7033 41.4541C18.5834 40.7471 19.1194 40.6337 20.5526 40.8533C21.6498 41.0216 22.5283 40.9454 22.8742 40.6525C23.1801 40.3929 24.2193 40.2391 25.1843 40.3104C26.5499 40.4112 27.0438 40.6579 27.4153 41.4229C27.678 41.9637 28.4623 42.9374 29.1586 43.587C30.7301 45.0536 30.808 46.6219 29.4045 48.5648C28.0316 50.4655 28.0871 52.0747 29.577 53.5967C31.1799 55.2342 32.9313 55.2342 34.5342 53.5967C36.4426 51.6468 36.1914 50.1993 33.4832 47.541C31.0531 45.1557 30.8908 44.6703 31.9157 42.8462C33.2136 40.5362 31.3109 37.828 29.2006 38.9817C27.6299 39.8404 26.0486 39.4525 24.1023 37.7317C22.1143 35.9743 21.6869 35.8289 20.5293 36.5172ZM47.6361 39.4817C46.4276 40.7162 47.6247 42.5966 49.3397 42.1566C50.5266 41.8524 50.963 40.8712 50.3937 39.785C49.923 38.8863 48.3845 38.7171 47.6361 39.4817ZM41.3346 45.6815C40.4544 46.2052 40.403 47.8614 41.2448 48.5752C41.7216 48.9793 42.1058 48.9935 42.8763 48.6348C44.1211 48.0556 44.2508 46.2948 43.0949 45.6628C42.156 45.1494 42.2302 45.1486 41.3346 45.6815ZM19.9012 49.0647C18.5169 50.4789 20.1447 52.8351 21.859 51.898C22.9109 51.323 22.9272 49.5656 21.8859 48.996C20.8683 48.4398 20.5004 48.4527 19.9012 49.0647Z" fill="#13785A"/>
</svg>
