<svg width="56" height="56" viewBox="0 0 56 56" fill="none" xmlns="http://www.w3.org/2000/svg">
<path fill-rule="evenodd" clip-rule="evenodd" d="M14.4825 0.125149C13.9472 0.437421 13.8589 0.975046 14.207 1.80145C14.4963 2.48809 14.7357 3.83955 14.8209 5.26711L14.8918 6.45553L14.0654 6.58635C11.719 6.95753 9.81926 8.17904 8.92131 9.89394C8.45645 10.7817 8.28246 11.3993 8.1424 12.6594C7.92504 14.6139 7.52923 15.417 5.25265 18.5231C3.21706 21.3003 2.20474 23.0781 1.68221 24.7934C1.51147 25.3542 1.42409 25.4901 1.2024 25.5398C0.0637823 25.7949 -0.00711755 25.9655 0.000471053 28.4326C0.0166239 33.7357 1.38181 39.1714 3.72702 43.2703C7.30147 49.518 12.5357 53.3555 20.2526 55.3864L21.6374 55.7509H25.5943C28.1906 55.7509 29.9427 55.7015 30.6895 55.6071C36.9278 54.8197 41.6826 53.061 45.5957 50.0939C46.7998 49.1808 48.8032 47.2221 49.7378 46.0441C53.5912 41.1868 55.7344 34.6565 55.7506 27.7234C55.7543 26.1186 55.7219 25.662 55.5849 25.3927C55.4914 25.2085 55.3463 25.031 55.2626 24.9984C55.1603 24.9585 55.0666 24.5842 54.9764 23.8553C54.4424 19.5388 52.3641 16.1127 49.4967 14.8225C48.5759 14.408 47.2299 14.1129 46.2462 14.1095L45.3789 14.1065L44.9213 13.1061L44.4636 12.1057L44.7198 11.5914C44.8606 11.3086 45.2495 10.7651 45.5839 10.3837C46.3033 9.56336 46.3606 9.23234 45.8778 8.68269C45.6185 8.38729 45.4847 8.32486 45.1109 8.32486C44.6959 8.32486 44.6015 8.38454 43.9798 9.03942C43.6067 9.43232 43.2511 9.84728 43.1895 9.96156C43.0874 10.1511 42.9936 10.0998 42.1143 9.37298C40.9503 8.41101 39.1937 7.50695 37.7903 7.14802C36.3553 6.78093 34.1957 6.802 32.7196 7.19733C29.1938 8.14198 26.3421 10.87 25.288 14.307C25.107 14.8968 24.9184 15.5487 24.8689 15.7555L24.7788 16.1317L24.3827 15.3055C23.8994 14.2977 23.7944 13.9113 23.6388 12.5666C23.572 11.9903 23.4047 11.1854 23.267 10.7779C22.5071 8.52793 20.3108 6.91925 17.4908 6.54664L16.9217 6.47141V5.94581C16.9217 5.11764 16.7095 3.20971 16.5233 2.36345C16.3069 1.38042 15.8163 0.267774 15.5308 0.112244C15.2467 -0.0424026 14.7592 -0.0364474 14.4825 0.125149ZM13.8097 8.75858C12.4754 9.13924 11.6225 9.66793 11.0225 10.4866C10.5702 11.1035 10.2003 12.1203 10.2003 12.7465C10.2003 13.387 9.87477 14.784 9.52656 15.6374C9.13759 16.5911 8.31769 17.8898 7.04075 19.5754C6.53329 20.2451 5.85551 21.1883 5.53463 21.6712C4.91941 22.5967 3.80421 24.7365 3.80421 24.9913C3.80421 25.1041 3.9859 25.1386 4.53596 25.1303C4.93838 25.1242 5.37277 25.0871 5.50113 25.0476C5.66146 24.9983 5.92501 24.5962 6.34314 23.7625C6.6779 23.0952 7.27946 22.1025 7.67992 21.5564C8.53397 20.3919 10.1191 18.6818 10.5589 18.4504C11.2209 18.102 11.9349 18.6105 11.9349 19.4303C11.9349 19.8285 11.8518 19.9549 10.9844 20.877C10.4617 21.4327 9.83823 22.1355 9.59897 22.4389C8.81258 23.4357 7.95604 24.8801 8.07778 25.004C8.11171 25.0385 8.71295 25.1097 9.41381 25.1621C11.4941 25.3176 13.7614 25.7475 16.0002 26.4106C16.1968 26.4689 16.2449 26.359 16.5162 25.2319C16.8483 23.8521 17.5152 22.347 18.218 21.391C19.3349 19.8715 20.8501 18.5642 22.4234 17.7622C22.7961 17.5722 23.1009 17.3884 23.1009 17.3536C23.1009 17.3189 22.9293 16.9781 22.7196 16.5964C22.2209 15.6892 21.848 14.556 21.6955 13.4847C21.4431 11.71 21.3384 11.3358 20.9141 10.6892C20.3322 9.80261 19.5784 9.26322 18.3439 8.85002C17.6126 8.60537 14.5624 8.54381 13.8097 8.75858ZM33.6708 9.19947C30.8799 9.8218 28.6019 11.712 27.553 14.2756C27.1391 15.2873 26.8636 16.5366 27.0424 16.592C27.1105 16.613 27.6541 16.6559 28.2504 16.6873C29.4199 16.7486 30.6475 17.0369 31.6383 17.4828L32.2606 17.7629L32.5778 17.3433C34.1569 15.2547 36.5024 14.1088 39.1899 14.1127C39.8511 14.1135 40.6732 14.1817 41.0169 14.2639L41.6416 14.4136L41.7005 14.1243C41.7329 13.9653 41.8312 13.5214 41.9191 13.138L42.0786 12.4409L41.747 12.0149C40.0395 9.82125 36.4672 8.57591 33.6708 9.19947ZM37.8987 16.3699C37.0361 16.5631 36.1899 16.9123 35.6239 17.3085C35.1739 17.6235 34.1586 18.6891 34.1586 18.8464C34.1586 18.8896 34.4765 19.2108 34.865 19.56L35.5714 20.195L36.132 19.682C37.0324 18.8584 38.0265 18.4452 39.3642 18.3386C40.1318 18.2775 40.1989 18.2906 40.5178 18.5636C40.9402 18.9251 41.0368 19.2944 40.8368 19.7818C40.6367 20.269 40.3683 20.4067 39.4048 20.5167C38.9725 20.566 38.4291 20.7049 38.1972 20.8252C37.7568 21.0538 36.9772 21.8501 36.9772 22.0712C36.9772 22.1417 37.1499 22.5696 37.361 23.022C37.7417 23.8381 38.2782 25.5325 38.2782 25.9188C38.2782 26.1039 38.3545 26.0936 39.2267 25.7907C40.6061 25.3119 42.5672 24.8403 44.2406 24.5853C46.1581 24.2931 49.4874 24.1875 51.3814 24.359C52.1785 24.431 52.8558 24.4645 52.8864 24.4333C52.9708 24.3475 52.6237 22.5324 52.3676 21.7207C51.6549 19.4606 50.3237 17.6406 48.8625 16.9291C47.2505 16.1439 45.4542 16.0257 43.8834 16.6012C42.7625 17.0119 42.436 17.0364 41.8014 16.7573C40.6432 16.2479 39.119 16.0966 37.8987 16.3699ZM26.2394 18.7418C22.7875 19.1777 19.9145 21.5236 18.7391 24.8656C18.4255 25.757 18.1702 27.1257 18.2979 27.2303C18.5064 27.401 19.7435 27.9325 19.7996 27.8754C19.8336 27.8407 19.9497 27.4472 20.0575 27.0009C20.746 24.1503 22.4428 22.0773 24.8004 21.2067C25.7376 20.8605 26.0785 20.8739 26.47 21.2722C27.0972 21.9104 26.7879 22.7977 25.8549 23.0367C23.846 23.5514 22.3976 25.4516 21.8546 28.2849C21.7416 28.8739 21.7368 29.0741 21.8346 29.13C21.905 29.1702 22.3825 29.5071 22.8958 29.8786C24.1729 30.8032 25.689 32.1805 26.6663 33.3039C27.1149 33.8196 27.5096 34.2543 27.5434 34.2699C27.5774 34.2856 27.9698 33.8451 28.4156 33.2913C30.307 30.9409 32.9826 28.7387 35.7038 27.2923C36.4053 26.9193 36.4277 26.8478 36.1685 25.8032C35.8393 24.4757 35.4578 23.6373 34.6447 22.4539C33.4532 20.7196 31.3715 19.3432 29.2802 18.907C28.2982 18.7022 27.0778 18.6359 26.2394 18.7418ZM45.4873 26.5866C42.0912 26.9478 38.2073 28.2358 35.5137 29.8941C32.5829 31.6985 29.7457 34.6286 27.9736 37.6813C25.9132 41.2309 24.5654 45.1911 23.7575 50.0706C23.5823 51.1291 23.4482 52.0022 23.4597 52.0109C23.4711 52.0196 25.822 49.9175 28.684 47.3395C31.546 44.7616 35.4979 41.2024 37.4661 39.4302C39.4342 37.6579 41.1507 36.1502 41.2803 36.0796C41.6513 35.8776 42.0287 35.9279 42.3765 36.2257C42.7398 36.5368 42.856 36.9492 42.7047 37.3908C42.6446 37.5661 41.9132 38.3118 40.9548 39.1751C37.3973 42.3789 26.8839 51.8316 25.8928 52.7175L24.8437 53.6551L25.6798 53.691C26.8777 53.7424 30.0551 53.5195 31.8278 53.2596C43.1931 51.5934 50.3742 45.1496 52.8486 34.3973C53.3054 32.4124 53.6683 29.3926 53.6711 27.5527L53.6722 26.8205L53.3199 26.7553C51.7719 26.4691 47.4648 26.3762 45.4873 26.5866ZM3.81244 27.3527C3.3697 27.3999 2.78939 27.4718 2.5226 27.5125L2.03769 27.5865L2.11195 29.2809C2.4014 35.8825 4.53998 41.7249 8.24896 46.0469C10.9191 49.1583 15.0128 51.6585 19.5235 52.9325C20.2091 53.1262 20.8529 53.3084 20.9539 53.3375C21.1602 53.3969 21.1448 53.4643 21.4243 51.2835C21.5714 50.1353 22.088 47.2371 22.3014 46.3618C22.3633 46.1081 22.8935 46.5391 13.2677 39.0181C10.8705 37.145 8.80943 35.4835 8.68748 35.3258C8.44735 35.0152 8.39965 34.5182 8.57744 34.1803C8.71566 33.9173 9.2357 33.6348 9.5813 33.6348C9.81124 33.6348 10.9755 34.4856 13.9037 36.7935C14.222 37.0443 15.9948 38.4291 17.8431 39.8706C19.6915 41.3122 21.6024 42.8066 22.0895 43.1915L22.9753 43.8914L23.2682 42.9822C23.8777 41.0908 25.2122 38.0612 25.9834 36.8181C26.1272 36.5863 26.2448 36.3389 26.2448 36.2681C26.2448 35.9134 24.0184 33.5218 22.6673 32.4252C18.341 28.9138 13.0838 27.2071 6.73189 27.2521C5.56888 27.2603 4.25508 27.3056 3.81244 27.3527Z" fill="#13785A"/>
</svg>
