<svg width="64" height="64" viewBox="0 0 64 64" fill="none" xmlns="http://www.w3.org/2000/svg">
<mask id="path-1-outside-1_1132_3096" maskUnits="userSpaceOnUse" x="-0.765625" y="-0.767822" width="64" height="64" fill="black">
<rect fill="white" x="-0.765625" y="-0.767822" width="64" height="64"/>
<path fill-rule="evenodd" clip-rule="evenodd" d="M29.6942 0.256368C29.5232 0.273152 28.9811 0.324047 28.4895 0.369425C21.2122 1.04101 14.2483 4.39876 9.05786 9.73869C4.19168 14.7449 1.24091 21.0051 0.382147 28.1442C0.185118 29.7818 0.185118 33.4221 0.382147 35.0597C0.904059 39.399 2.12408 43.2276 4.13991 46.8529C8.78256 55.202 17.0417 61.0305 26.3909 62.5554C28.4235 62.8869 29.3315 62.955 31.6761 62.9518C34.0531 62.9485 35.1762 62.8535 37.2333 62.4819C49.2797 60.3056 58.9219 51.3506 61.9911 39.4889C62.7038 36.7345 62.9541 34.6843 62.9541 31.6019C62.9541 29.1434 62.8653 28.0698 62.488 25.9685C60.858 16.8897 55.2785 8.99283 47.2105 4.34576C43.5548 2.24019 39.5818 0.949939 35.0571 0.39903C34.1051 0.283098 30.419 0.185038 29.6942 0.256368ZM29.3056 1.92914C23.371 2.38238 17.7487 4.59511 13.0225 8.33772C11.8083 9.29921 9.44523 11.6307 8.54108 12.7591C5.18475 16.9482 3.11816 21.5108 2.25878 26.629C1.93755 28.5423 1.87335 29.3703 1.87335 31.6019C1.87335 34.3822 2.09462 36.2691 2.71649 38.7904C3.88646 43.5343 6.34182 48.1414 9.54899 51.6103L9.98005 52.0765L14.1261 47.9389C18.157 43.9162 18.2805 43.8012 18.5698 43.8012C19.1323 43.8012 19.6003 44.5233 19.3225 44.9623C19.2835 45.024 17.4215 46.9057 15.1849 49.1438L11.1183 53.2131L11.5846 53.6467C11.8411 53.8852 12.5057 54.4441 13.0614 54.8887C19.4422 59.9937 27.7511 62.231 35.912 61.0418C44.2563 59.8258 51.7036 55.1201 56.3722 48.1137C59.0526 44.091 60.6522 39.6354 61.2261 34.5935C61.3526 33.4825 61.3526 29.7214 61.2261 28.6104C60.5838 22.9673 58.6549 18.0489 55.3706 13.6801C54.7004 12.7885 53.3085 11.1662 53.2137 11.1662C53.1829 11.1662 52.7857 11.5421 52.3311 12.0015C51.8765 12.461 50.0239 14.3141 48.2141 16.1198C45.0277 19.299 44.9143 19.4027 44.6266 19.4027C44.2045 19.4027 43.801 18.9991 43.801 18.5769C43.801 18.2877 43.916 18.1642 47.9397 14.1344L52.0785 9.98944L51.6122 9.55648C51.3557 9.3184 50.6911 8.7598 50.1354 8.31519C44.3132 3.65693 36.8087 1.35617 29.3056 1.92914ZM19.4702 22.4704C16.5438 24.1576 14.0708 25.6282 13.9746 25.7382L13.7998 25.9384L13.8001 32.2473L13.8005 38.5563L13.975 38.7604C14.071 38.8727 15.7759 39.9003 17.7636 41.044C19.7514 42.1876 22.1298 43.5591 23.0488 44.0917C23.9679 44.6242 24.8248 45.0764 24.9531 45.0967C25.1918 45.1343 25.1502 45.1568 29.6942 42.5363L30.7046 41.9537L30.9103 42.4042C31.0236 42.652 31.1841 42.8912 31.2671 42.9356C31.3913 43.002 34.8037 43.6345 39.3319 44.4304C39.8021 44.513 40.9626 44.72 41.9107 44.8904C43.1283 45.1092 43.6876 45.1795 43.815 45.1298C44.0541 45.0365 44.226 44.8482 45.989 42.7468C46.8161 41.7608 48.4197 39.8563 49.5525 38.5145C52.2521 35.3168 52.1157 35.4932 52.1166 35.1965C52.1171 35.0581 51.5381 33.3447 50.8301 31.3891C50.1221 29.4334 49.1914 26.8543 48.7617 25.6577C48.2044 24.1053 47.9219 23.4218 47.7756 23.2719C47.5528 23.0436 48.4001 23.2098 37.7092 21.2975C35.6629 20.9316 35.2764 20.882 35.0852 20.9612C34.955 21.0151 34.462 21.5279 33.9097 22.1841C33.3866 22.8056 32.8886 23.3945 32.8031 23.4927L32.6477 23.6713L28.9558 21.537C26.3305 20.0193 25.1956 19.4027 25.0274 19.4027C24.8576 19.4027 23.2887 20.2688 19.4702 22.4704ZM20.62 23.696C18.2368 25.0725 16.2881 26.2168 16.2895 26.2389C16.2909 26.2612 17.5588 27.0061 19.1069 27.8944C20.6551 28.7826 22.6214 29.913 23.4763 30.4063C24.6163 31.064 25.0619 31.2841 25.1474 31.2318C25.3022 31.137 29.3726 28.7902 31.715 27.4452C32.7409 26.8561 33.6223 26.3354 33.6737 26.2879C33.7437 26.2232 32.6846 25.5772 29.4232 23.6957C27.034 22.3175 25.0509 21.1907 25.0162 21.1917C24.9814 21.1927 23.0032 22.3197 20.62 23.696ZM35.2837 23.0782C35.0664 23.343 34.7096 23.7727 34.4907 24.033L34.0928 24.5063L35.0179 25.0327C35.5267 25.3222 36.006 25.6287 36.083 25.7136C36.2109 25.8549 36.2263 26.116 36.2618 28.7533L36.3007 31.6385L37.7241 31.8964L39.1475 32.1543L39.2909 31.9752C39.3697 31.8768 40.834 30.1358 42.5449 28.1064C44.2556 26.0769 45.6463 24.4073 45.635 24.3961C45.6097 24.3709 44.5537 24.1793 39.7594 23.33C37.6861 22.9628 35.9198 22.6475 35.8343 22.6295C35.7188 22.6051 35.5776 22.7202 35.2837 23.0782ZM44.9249 27.8347C43.8151 29.1492 42.3395 30.893 41.6458 31.7097C40.822 32.6796 40.4002 33.2352 40.43 33.3114C40.5146 33.5283 42.3319 38.5432 43.0768 40.6154C43.4839 41.7479 43.8268 42.6851 43.8389 42.6979C43.8565 42.7168 48.343 37.4299 49.9875 35.4525L50.3837 34.9761L48.6942 30.3038C47.765 27.7339 46.9907 25.5894 46.9736 25.5381C46.9565 25.4868 46.0346 26.5203 44.9249 27.8347ZM31.5292 29.4287C29.8453 30.4052 28.3584 31.3099 28.2249 31.4393C28.0914 31.5686 27.8595 31.7018 27.7095 31.7353C27.5595 31.7688 27.0791 32.004 26.6418 32.2579L25.8469 32.7195V37.8031V42.8867L26.0218 42.7725C26.1179 42.7097 28.0941 41.5649 30.4131 40.2284L34.6296 37.7984V32.7188C34.6296 29.925 34.6209 27.6423 34.6102 27.6462C34.5995 27.65 33.213 28.4521 31.5292 29.4287ZM15.4319 32.7613V37.8058L16.8504 38.6195C17.6306 39.067 19.5761 40.1887 21.1739 41.1121C22.7717 42.0356 24.1094 42.7911 24.1468 42.7911C24.1848 42.7911 24.2147 40.5753 24.2147 37.7581V32.7252L23.4569 32.2885C22.4146 31.688 19.1517 29.8052 17.1744 28.6632C16.2732 28.1426 15.5124 27.7168 15.4839 27.7168C15.4553 27.7168 15.4319 29.9868 15.4319 32.7613ZM36.2614 35.895C36.261 38.218 36.2473 38.5004 36.1254 38.6942C36.0344 38.839 35.3765 39.2618 34.1244 39.98C32.2458 41.0576 32.0382 41.226 32.3136 41.4488C32.4356 41.5476 42.1563 43.2957 42.2214 43.2306C42.2466 43.2055 41.9093 42.1959 41.4721 40.9871C41.0348 39.7784 40.2729 37.6705 39.7792 36.3029C39.2853 34.9354 38.8686 33.8015 38.853 33.7831C38.825 33.7501 36.5463 33.3227 36.359 33.3152C36.2831 33.3123 36.2617 33.8781 36.2614 35.895Z"/>
</mask>
<path fill-rule="evenodd" clip-rule="evenodd" d="M29.6942 0.256368C29.5232 0.273152 28.9811 0.324047 28.4895 0.369425C21.2122 1.04101 14.2483 4.39876 9.05786 9.73869C4.19168 14.7449 1.24091 21.0051 0.382147 28.1442C0.185118 29.7818 0.185118 33.4221 0.382147 35.0597C0.904059 39.399 2.12408 43.2276 4.13991 46.8529C8.78256 55.202 17.0417 61.0305 26.3909 62.5554C28.4235 62.8869 29.3315 62.955 31.6761 62.9518C34.0531 62.9485 35.1762 62.8535 37.2333 62.4819C49.2797 60.3056 58.9219 51.3506 61.9911 39.4889C62.7038 36.7345 62.9541 34.6843 62.9541 31.6019C62.9541 29.1434 62.8653 28.0698 62.488 25.9685C60.858 16.8897 55.2785 8.99283 47.2105 4.34576C43.5548 2.24019 39.5818 0.949939 35.0571 0.39903C34.1051 0.283098 30.419 0.185038 29.6942 0.256368ZM29.3056 1.92914C23.371 2.38238 17.7487 4.59511 13.0225 8.33772C11.8083 9.29921 9.44523 11.6307 8.54108 12.7591C5.18475 16.9482 3.11816 21.5108 2.25878 26.629C1.93755 28.5423 1.87335 29.3703 1.87335 31.6019C1.87335 34.3822 2.09462 36.2691 2.71649 38.7904C3.88646 43.5343 6.34182 48.1414 9.54899 51.6103L9.98005 52.0765L14.1261 47.9389C18.157 43.9162 18.2805 43.8012 18.5698 43.8012C19.1323 43.8012 19.6003 44.5233 19.3225 44.9623C19.2835 45.024 17.4215 46.9057 15.1849 49.1438L11.1183 53.2131L11.5846 53.6467C11.8411 53.8852 12.5057 54.4441 13.0614 54.8887C19.4422 59.9937 27.7511 62.231 35.912 61.0418C44.2563 59.8258 51.7036 55.1201 56.3722 48.1137C59.0526 44.091 60.6522 39.6354 61.2261 34.5935C61.3526 33.4825 61.3526 29.7214 61.2261 28.6104C60.5838 22.9673 58.6549 18.0489 55.3706 13.6801C54.7004 12.7885 53.3085 11.1662 53.2137 11.1662C53.1829 11.1662 52.7857 11.5421 52.3311 12.0015C51.8765 12.461 50.0239 14.3141 48.2141 16.1198C45.0277 19.299 44.9143 19.4027 44.6266 19.4027C44.2045 19.4027 43.801 18.9991 43.801 18.5769C43.801 18.2877 43.916 18.1642 47.9397 14.1344L52.0785 9.98944L51.6122 9.55648C51.3557 9.3184 50.6911 8.7598 50.1354 8.31519C44.3132 3.65693 36.8087 1.35617 29.3056 1.92914ZM19.4702 22.4704C16.5438 24.1576 14.0708 25.6282 13.9746 25.7382L13.7998 25.9384L13.8001 32.2473L13.8005 38.5563L13.975 38.7604C14.071 38.8727 15.7759 39.9003 17.7636 41.044C19.7514 42.1876 22.1298 43.5591 23.0488 44.0917C23.9679 44.6242 24.8248 45.0764 24.9531 45.0967C25.1918 45.1343 25.1502 45.1568 29.6942 42.5363L30.7046 41.9537L30.9103 42.4042C31.0236 42.652 31.1841 42.8912 31.2671 42.9356C31.3913 43.002 34.8037 43.6345 39.3319 44.4304C39.8021 44.513 40.9626 44.72 41.9107 44.8904C43.1283 45.1092 43.6876 45.1795 43.815 45.1298C44.0541 45.0365 44.226 44.8482 45.989 42.7468C46.8161 41.7608 48.4197 39.8563 49.5525 38.5145C52.2521 35.3168 52.1157 35.4932 52.1166 35.1965C52.1171 35.0581 51.5381 33.3447 50.8301 31.3891C50.1221 29.4334 49.1914 26.8543 48.7617 25.6577C48.2044 24.1053 47.9219 23.4218 47.7756 23.2719C47.5528 23.0436 48.4001 23.2098 37.7092 21.2975C35.6629 20.9316 35.2764 20.882 35.0852 20.9612C34.955 21.0151 34.462 21.5279 33.9097 22.1841C33.3866 22.8056 32.8886 23.3945 32.8031 23.4927L32.6477 23.6713L28.9558 21.537C26.3305 20.0193 25.1956 19.4027 25.0274 19.4027C24.8576 19.4027 23.2887 20.2688 19.4702 22.4704ZM20.62 23.696C18.2368 25.0725 16.2881 26.2168 16.2895 26.2389C16.2909 26.2612 17.5588 27.0061 19.1069 27.8944C20.6551 28.7826 22.6214 29.913 23.4763 30.4063C24.6163 31.064 25.0619 31.2841 25.1474 31.2318C25.3022 31.137 29.3726 28.7902 31.715 27.4452C32.7409 26.8561 33.6223 26.3354 33.6737 26.2879C33.7437 26.2232 32.6846 25.5772 29.4232 23.6957C27.034 22.3175 25.0509 21.1907 25.0162 21.1917C24.9814 21.1927 23.0032 22.3197 20.62 23.696ZM35.2837 23.0782C35.0664 23.343 34.7096 23.7727 34.4907 24.033L34.0928 24.5063L35.0179 25.0327C35.5267 25.3222 36.006 25.6287 36.083 25.7136C36.2109 25.8549 36.2263 26.116 36.2618 28.7533L36.3007 31.6385L37.7241 31.8964L39.1475 32.1543L39.2909 31.9752C39.3697 31.8768 40.834 30.1358 42.5449 28.1064C44.2556 26.0769 45.6463 24.4073 45.635 24.3961C45.6097 24.3709 44.5537 24.1793 39.7594 23.33C37.6861 22.9628 35.9198 22.6475 35.8343 22.6295C35.7188 22.6051 35.5776 22.7202 35.2837 23.0782ZM44.9249 27.8347C43.8151 29.1492 42.3395 30.893 41.6458 31.7097C40.822 32.6796 40.4002 33.2352 40.43 33.3114C40.5146 33.5283 42.3319 38.5432 43.0768 40.6154C43.4839 41.7479 43.8268 42.6851 43.8389 42.6979C43.8565 42.7168 48.343 37.4299 49.9875 35.4525L50.3837 34.9761L48.6942 30.3038C47.765 27.7339 46.9907 25.5894 46.9736 25.5381C46.9565 25.4868 46.0346 26.5203 44.9249 27.8347ZM31.5292 29.4287C29.8453 30.4052 28.3584 31.3099 28.2249 31.4393C28.0914 31.5686 27.8595 31.7018 27.7095 31.7353C27.5595 31.7688 27.0791 32.004 26.6418 32.2579L25.8469 32.7195V37.8031V42.8867L26.0218 42.7725C26.1179 42.7097 28.0941 41.5649 30.4131 40.2284L34.6296 37.7984V32.7188C34.6296 29.925 34.6209 27.6423 34.6102 27.6462C34.5995 27.65 33.213 28.4521 31.5292 29.4287ZM15.4319 32.7613V37.8058L16.8504 38.6195C17.6306 39.067 19.5761 40.1887 21.1739 41.1121C22.7717 42.0356 24.1094 42.7911 24.1468 42.7911C24.1848 42.7911 24.2147 40.5753 24.2147 37.7581V32.7252L23.4569 32.2885C22.4146 31.688 19.1517 29.8052 17.1744 28.6632C16.2732 28.1426 15.5124 27.7168 15.4839 27.7168C15.4553 27.7168 15.4319 29.9868 15.4319 32.7613ZM36.2614 35.895C36.261 38.218 36.2473 38.5004 36.1254 38.6942C36.0344 38.839 35.3765 39.2618 34.1244 39.98C32.2458 41.0576 32.0382 41.226 32.3136 41.4488C32.4356 41.5476 42.1563 43.2957 42.2214 43.2306C42.2466 43.2055 41.9093 42.1959 41.4721 40.9871C41.0348 39.7784 40.2729 37.6705 39.7792 36.3029C39.2853 34.9354 38.8686 33.8015 38.853 33.7831C38.825 33.7501 36.5463 33.3227 36.359 33.3152C36.2831 33.3123 36.2617 33.8781 36.2614 35.895Z" fill="#13785A"/>
<path fill-rule="evenodd" clip-rule="evenodd" d="M29.6942 0.256368C29.5232 0.273152 28.9811 0.324047 28.4895 0.369425C21.2122 1.04101 14.2483 4.39876 9.05786 9.73869C4.19168 14.7449 1.24091 21.0051 0.382147 28.1442C0.185118 29.7818 0.185118 33.4221 0.382147 35.0597C0.904059 39.399 2.12408 43.2276 4.13991 46.8529C8.78256 55.202 17.0417 61.0305 26.3909 62.5554C28.4235 62.8869 29.3315 62.955 31.6761 62.9518C34.0531 62.9485 35.1762 62.8535 37.2333 62.4819C49.2797 60.3056 58.9219 51.3506 61.9911 39.4889C62.7038 36.7345 62.9541 34.6843 62.9541 31.6019C62.9541 29.1434 62.8653 28.0698 62.488 25.9685C60.858 16.8897 55.2785 8.99283 47.2105 4.34576C43.5548 2.24019 39.5818 0.949939 35.0571 0.39903C34.1051 0.283098 30.419 0.185038 29.6942 0.256368ZM29.3056 1.92914C23.371 2.38238 17.7487 4.59511 13.0225 8.33772C11.8083 9.29921 9.44523 11.6307 8.54108 12.7591C5.18475 16.9482 3.11816 21.5108 2.25878 26.629C1.93755 28.5423 1.87335 29.3703 1.87335 31.6019C1.87335 34.3822 2.09462 36.2691 2.71649 38.7904C3.88646 43.5343 6.34182 48.1414 9.54899 51.6103L9.98005 52.0765L14.1261 47.9389C18.157 43.9162 18.2805 43.8012 18.5698 43.8012C19.1323 43.8012 19.6003 44.5233 19.3225 44.9623C19.2835 45.024 17.4215 46.9057 15.1849 49.1438L11.1183 53.2131L11.5846 53.6467C11.8411 53.8852 12.5057 54.4441 13.0614 54.8887C19.4422 59.9937 27.7511 62.231 35.912 61.0418C44.2563 59.8258 51.7036 55.1201 56.3722 48.1137C59.0526 44.091 60.6522 39.6354 61.2261 34.5935C61.3526 33.4825 61.3526 29.7214 61.2261 28.6104C60.5838 22.9673 58.6549 18.0489 55.3706 13.6801C54.7004 12.7885 53.3085 11.1662 53.2137 11.1662C53.1829 11.1662 52.7857 11.5421 52.3311 12.0015C51.8765 12.461 50.0239 14.3141 48.2141 16.1198C45.0277 19.299 44.9143 19.4027 44.6266 19.4027C44.2045 19.4027 43.801 18.9991 43.801 18.5769C43.801 18.2877 43.916 18.1642 47.9397 14.1344L52.0785 9.98944L51.6122 9.55648C51.3557 9.3184 50.6911 8.7598 50.1354 8.31519C44.3132 3.65693 36.8087 1.35617 29.3056 1.92914ZM19.4702 22.4704C16.5438 24.1576 14.0708 25.6282 13.9746 25.7382L13.7998 25.9384L13.8001 32.2473L13.8005 38.5563L13.975 38.7604C14.071 38.8727 15.7759 39.9003 17.7636 41.044C19.7514 42.1876 22.1298 43.5591 23.0488 44.0917C23.9679 44.6242 24.8248 45.0764 24.9531 45.0967C25.1918 45.1343 25.1502 45.1568 29.6942 42.5363L30.7046 41.9537L30.9103 42.4042C31.0236 42.652 31.1841 42.8912 31.2671 42.9356C31.3913 43.002 34.8037 43.6345 39.3319 44.4304C39.8021 44.513 40.9626 44.72 41.9107 44.8904C43.1283 45.1092 43.6876 45.1795 43.815 45.1298C44.0541 45.0365 44.226 44.8482 45.989 42.7468C46.8161 41.7608 48.4197 39.8563 49.5525 38.5145C52.2521 35.3168 52.1157 35.4932 52.1166 35.1965C52.1171 35.0581 51.5381 33.3447 50.8301 31.3891C50.1221 29.4334 49.1914 26.8543 48.7617 25.6577C48.2044 24.1053 47.9219 23.4218 47.7756 23.2719C47.5528 23.0436 48.4001 23.2098 37.7092 21.2975C35.6629 20.9316 35.2764 20.882 35.0852 20.9612C34.955 21.0151 34.462 21.5279 33.9097 22.1841C33.3866 22.8056 32.8886 23.3945 32.8031 23.4927L32.6477 23.6713L28.9558 21.537C26.3305 20.0193 25.1956 19.4027 25.0274 19.4027C24.8576 19.4027 23.2887 20.2688 19.4702 22.4704ZM20.62 23.696C18.2368 25.0725 16.2881 26.2168 16.2895 26.2389C16.2909 26.2612 17.5588 27.0061 19.1069 27.8944C20.6551 28.7826 22.6214 29.913 23.4763 30.4063C24.6163 31.064 25.0619 31.2841 25.1474 31.2318C25.3022 31.137 29.3726 28.7902 31.715 27.4452C32.7409 26.8561 33.6223 26.3354 33.6737 26.2879C33.7437 26.2232 32.6846 25.5772 29.4232 23.6957C27.034 22.3175 25.0509 21.1907 25.0162 21.1917C24.9814 21.1927 23.0032 22.3197 20.62 23.696ZM35.2837 23.0782C35.0664 23.343 34.7096 23.7727 34.4907 24.033L34.0928 24.5063L35.0179 25.0327C35.5267 25.3222 36.006 25.6287 36.083 25.7136C36.2109 25.8549 36.2263 26.116 36.2618 28.7533L36.3007 31.6385L37.7241 31.8964L39.1475 32.1543L39.2909 31.9752C39.3697 31.8768 40.834 30.1358 42.5449 28.1064C44.2556 26.0769 45.6463 24.4073 45.635 24.3961C45.6097 24.3709 44.5537 24.1793 39.7594 23.33C37.6861 22.9628 35.9198 22.6475 35.8343 22.6295C35.7188 22.6051 35.5776 22.7202 35.2837 23.0782ZM44.9249 27.8347C43.8151 29.1492 42.3395 30.893 41.6458 31.7097C40.822 32.6796 40.4002 33.2352 40.43 33.3114C40.5146 33.5283 42.3319 38.5432 43.0768 40.6154C43.4839 41.7479 43.8268 42.6851 43.8389 42.6979C43.8565 42.7168 48.343 37.4299 49.9875 35.4525L50.3837 34.9761L48.6942 30.3038C47.765 27.7339 46.9907 25.5894 46.9736 25.5381C46.9565 25.4868 46.0346 26.5203 44.9249 27.8347ZM31.5292 29.4287C29.8453 30.4052 28.3584 31.3099 28.2249 31.4393C28.0914 31.5686 27.8595 31.7018 27.7095 31.7353C27.5595 31.7688 27.0791 32.004 26.6418 32.2579L25.8469 32.7195V37.8031V42.8867L26.0218 42.7725C26.1179 42.7097 28.0941 41.5649 30.4131 40.2284L34.6296 37.7984V32.7188C34.6296 29.925 34.6209 27.6423 34.6102 27.6462C34.5995 27.65 33.213 28.4521 31.5292 29.4287ZM15.4319 32.7613V37.8058L16.8504 38.6195C17.6306 39.067 19.5761 40.1887 21.1739 41.1121C22.7717 42.0356 24.1094 42.7911 24.1468 42.7911C24.1848 42.7911 24.2147 40.5753 24.2147 37.7581V32.7252L23.4569 32.2885C22.4146 31.688 19.1517 29.8052 17.1744 28.6632C16.2732 28.1426 15.5124 27.7168 15.4839 27.7168C15.4553 27.7168 15.4319 29.9868 15.4319 32.7613ZM36.2614 35.895C36.261 38.218 36.2473 38.5004 36.1254 38.6942C36.0344 38.839 35.3765 39.2618 34.1244 39.98C32.2458 41.0576 32.0382 41.226 32.3136 41.4488C32.4356 41.5476 42.1563 43.2957 42.2214 43.2306C42.2466 43.2055 41.9093 42.1959 41.4721 40.9871C41.0348 39.7784 40.2729 37.6705 39.7792 36.3029C39.2853 34.9354 38.8686 33.8015 38.853 33.7831C38.825 33.7501 36.5463 33.3227 36.359 33.3152C36.2831 33.3123 36.2617 33.8781 36.2614 35.895Z" stroke="#13785A" stroke-width="0.464591" mask="url(#path-1-outside-1_1132_3096)"/>
</svg>
