<svg width="61" height="62" viewBox="0 0 61 62" fill="none" xmlns="http://www.w3.org/2000/svg">
<mask id="path-1-inside-1_1132_3097" fill="white">
<path fill-rule="evenodd" clip-rule="evenodd" d="M27.4039 0.0456897C27.2418 0.073922 26.6321 0.15703 26.0488 0.230238C21.7115 0.77484 17.0912 2.5707 13.3234 5.1765C11.481 6.45074 10.2251 7.51758 8.66154 9.13648C6.23475 11.6491 4.51482 14.1139 3.02901 17.2082C1.97609 19.4008 1.38613 21.0275 0.834812 23.258C0.118535 26.1553 0.00848362 27.1682 0.0115471 30.8355C0.0139037 33.7325 0.047249 34.3269 0.284908 35.7038C1.20385 41.0309 3.35162 45.9422 6.55265 50.0365C9.344 53.6068 13.5714 56.9653 17.6141 58.8245C21.4519 60.5895 25.0182 61.425 29.2012 61.5392C32.0404 61.6167 33.8799 61.4646 36.2712 60.9551C42.1972 59.6924 47.3104 56.825 51.618 52.3493C54.1323 49.7368 55.7517 47.3826 57.3374 44.035C58.7505 41.0515 59.7296 37.6997 60.0506 34.7464C60.1238 34.0742 60.2312 33.4288 60.2895 33.3121C60.4399 33.0114 60.4286 28.05 60.2779 28.1467C60.2087 28.191 60.16 28.0615 60.16 27.8334C60.16 27.0778 59.7835 24.8265 59.3918 23.2405C58.8703 21.1291 58.3258 19.6236 57.2762 17.3915C55.8413 14.3403 53.9757 11.6389 51.6207 9.20296C46.9622 4.38417 41.1648 1.34474 34.5914 0.27497C33.4198 0.0844327 28.1458 -0.0839831 27.4039 0.0456897ZM27.993 3.59305C25.9988 3.84336 25.4278 3.93184 24.3992 4.15C21.8035 4.70083 18.2087 6.19555 15.912 7.67928C6.08322 14.0282 1.36716 26.0213 4.18985 37.4885C5.173 41.4829 7.35813 45.7232 9.97497 48.7149L10.5149 49.3321L18.2551 41.3028L25.9955 33.2733L23.5576 30.7532L21.1197 28.233L20.6532 28.4037C19.9647 28.6557 18.9219 28.6172 18.1294 28.3106C17.1688 27.939 15.9962 26.7165 15.6275 25.7023C15.4046 25.0892 15.3703 24.806 15.4183 23.9733L15.4757 22.9776L14.7725 22.2623C14.3857 21.8689 13.9069 21.3053 13.7085 21.01C12.5288 19.254 12.4847 16.5958 13.6052 14.7845C14.1186 13.9547 15.4488 12.6585 16.1836 12.2725C18.5804 11.0125 21.2168 11.5478 23.2689 13.7111L23.906 14.3827L24.8596 14.3157C26.1315 14.2266 26.8994 14.5187 27.8877 15.4676C28.9177 16.4568 29.2205 17.1273 29.2259 18.4304C29.2283 19.0018 29.1907 19.6342 29.1425 19.8359C29.0583 20.1882 29.1494 20.2974 31.4794 22.6364L33.904 25.0702L40.9049 17.8092C44.7554 13.8156 47.9038 10.5205 47.9012 10.4866C47.8918 10.3646 46.0552 8.90426 44.9568 8.14541C41.8439 5.99475 37.9405 4.44027 34.1201 3.83003C32.9397 3.64145 28.8634 3.48379 27.993 3.59305ZM42.6825 19.6265L35.6327 26.945L37.4045 28.6903C39.8527 31.1017 40.424 32.0399 40.5676 33.886C40.6283 34.6661 40.6761 34.7937 41.0805 35.2538C41.8671 36.1484 42.0706 36.6843 42.071 37.863C42.0713 38.6332 42.0164 39.0068 41.8589 39.3076L41.6464 39.7135L42.6926 41.8742C44.0885 44.7573 44.43 45.8547 44.43 47.4571C44.43 48.5273 44.3908 48.7661 44.1142 49.3781C43.6971 50.3012 42.8871 51.1804 42.0473 51.6215C41.4233 51.9493 41.2633 51.9791 40.1293 51.9791C38.9464 51.9791 38.8598 51.9609 38.1554 51.5648C37.2602 51.0611 36.5605 50.2992 36.1427 49.3728C35.8672 48.762 35.8307 48.5333 35.8372 47.4571C35.8456 46.03 36.1334 44.9713 37.0794 42.8848C37.3967 42.1851 37.6428 41.6065 37.6261 41.5992C36.9048 41.2794 36.3688 40.9426 35.9606 40.5524C35.5077 40.1192 35.3819 40.0629 34.868 40.0629C34.5487 40.0629 33.9837 39.9809 33.6126 39.8805C32.3183 39.5309 31.8033 39.1536 29.7566 37.0557L27.8087 35.0591L20.0526 43.1049L12.2963 51.1507L13.2812 51.9387C15.5776 53.7758 17.0828 54.7082 19.4625 55.7677C24.9081 58.1923 31.122 58.6726 36.889 57.1147C41.4942 55.8706 45.4001 53.5962 48.8065 50.1751C51.129 47.8424 52.758 45.5264 54.1564 42.5683C55.9905 38.6889 56.7758 35.153 56.7758 30.7744C56.7758 28.2034 56.6102 26.699 56.0774 24.4288C55.0879 20.2124 52.9463 15.9942 50.1901 12.8332L49.7323 12.308L42.6825 19.6265ZM17.8081 14.3477C16.9503 14.6315 15.7126 15.9424 15.456 16.839C15.22 17.6633 15.22 17.9754 15.4562 18.8003C15.6228 19.3825 15.8282 19.6523 17.223 21.1222L18.8013 22.7856L18.451 23.1336C17.715 23.8652 17.7368 24.8004 18.5063 25.5012C19.0161 25.9656 19.4904 26.0734 19.9979 25.8402C20.2153 25.7403 21.8397 24.1835 23.6078 22.3807L26.8225 19.1026L26.8186 18.5641C26.8158 18.1795 26.7288 17.9089 26.514 17.6168C25.7969 16.6416 24.8099 16.5982 23.9923 17.5061L23.7031 17.8271L22.2248 16.3072C21.4118 15.4713 20.5219 14.6712 20.2472 14.5294C19.5724 14.1809 18.5439 14.1043 17.8081 14.3477ZM25.1886 24.3937L23.0321 26.5579L24.8379 28.4231L26.6436 30.2885L31.0004 30.2564L35.3572 30.2244L31.4569 26.2218C29.3117 24.0204 27.509 22.2215 27.4508 22.2244C27.3925 22.2272 26.3745 23.2035 25.1886 24.3937ZM0 30.7744C0 32.2196 0.0169672 32.8109 0.0378228 32.0882C0.0586784 31.3655 0.0586784 30.1831 0.0378228 29.4605C0.0169672 28.738 0 29.3291 0 30.7744ZM30.9988 34.6882C32.2439 35.982 33.3153 36.9902 33.5955 37.1315C34.2638 37.4685 35.0181 37.544 35.6518 37.3372L36.182 37.1641L37.0953 38.0913C37.9326 38.9414 38.0488 39.0185 38.4918 39.0185C38.8881 39.0185 39.0365 38.9472 39.3165 38.6221C39.8937 37.9521 39.8051 37.6248 38.7346 36.4731L37.8111 35.4797L37.9822 34.8748C38.1717 34.2045 38.0479 33.2616 37.7033 32.7515C37.5243 32.4864 37.507 32.4854 33.2015 32.4854H28.8792L30.9988 34.6882ZM39.9085 42.7546C39.5033 43.4438 38.625 45.6007 38.4271 46.3925C38.1828 47.3709 38.1963 47.8275 38.4881 48.4528C39.1334 49.8355 41.0004 49.8911 41.7557 48.5502C41.9884 48.1372 42.0189 47.9502 41.9689 47.2446C41.9077 46.3788 41.3787 44.8399 40.5728 43.1824L40.1583 42.3298L39.9085 42.7546Z"/>
</mask>
<path fill-rule="evenodd" clip-rule="evenodd" d="M27.4039 0.0456897C27.2418 0.073922 26.6321 0.15703 26.0488 0.230238C21.7115 0.77484 17.0912 2.5707 13.3234 5.1765C11.481 6.45074 10.2251 7.51758 8.66154 9.13648C6.23475 11.6491 4.51482 14.1139 3.02901 17.2082C1.97609 19.4008 1.38613 21.0275 0.834812 23.258C0.118535 26.1553 0.00848362 27.1682 0.0115471 30.8355C0.0139037 33.7325 0.047249 34.3269 0.284908 35.7038C1.20385 41.0309 3.35162 45.9422 6.55265 50.0365C9.344 53.6068 13.5714 56.9653 17.6141 58.8245C21.4519 60.5895 25.0182 61.425 29.2012 61.5392C32.0404 61.6167 33.8799 61.4646 36.2712 60.9551C42.1972 59.6924 47.3104 56.825 51.618 52.3493C54.1323 49.7368 55.7517 47.3826 57.3374 44.035C58.7505 41.0515 59.7296 37.6997 60.0506 34.7464C60.1238 34.0742 60.2312 33.4288 60.2895 33.3121C60.4399 33.0114 60.4286 28.05 60.2779 28.1467C60.2087 28.191 60.16 28.0615 60.16 27.8334C60.16 27.0778 59.7835 24.8265 59.3918 23.2405C58.8703 21.1291 58.3258 19.6236 57.2762 17.3915C55.8413 14.3403 53.9757 11.6389 51.6207 9.20296C46.9622 4.38417 41.1648 1.34474 34.5914 0.27497C33.4198 0.0844327 28.1458 -0.0839831 27.4039 0.0456897ZM27.993 3.59305C25.9988 3.84336 25.4278 3.93184 24.3992 4.15C21.8035 4.70083 18.2087 6.19555 15.912 7.67928C6.08322 14.0282 1.36716 26.0213 4.18985 37.4885C5.173 41.4829 7.35813 45.7232 9.97497 48.7149L10.5149 49.3321L18.2551 41.3028L25.9955 33.2733L23.5576 30.7532L21.1197 28.233L20.6532 28.4037C19.9647 28.6557 18.9219 28.6172 18.1294 28.3106C17.1688 27.939 15.9962 26.7165 15.6275 25.7023C15.4046 25.0892 15.3703 24.806 15.4183 23.9733L15.4757 22.9776L14.7725 22.2623C14.3857 21.8689 13.9069 21.3053 13.7085 21.01C12.5288 19.254 12.4847 16.5958 13.6052 14.7845C14.1186 13.9547 15.4488 12.6585 16.1836 12.2725C18.5804 11.0125 21.2168 11.5478 23.2689 13.7111L23.906 14.3827L24.8596 14.3157C26.1315 14.2266 26.8994 14.5187 27.8877 15.4676C28.9177 16.4568 29.2205 17.1273 29.2259 18.4304C29.2283 19.0018 29.1907 19.6342 29.1425 19.8359C29.0583 20.1882 29.1494 20.2974 31.4794 22.6364L33.904 25.0702L40.9049 17.8092C44.7554 13.8156 47.9038 10.5205 47.9012 10.4866C47.8918 10.3646 46.0552 8.90426 44.9568 8.14541C41.8439 5.99475 37.9405 4.44027 34.1201 3.83003C32.9397 3.64145 28.8634 3.48379 27.993 3.59305ZM42.6825 19.6265L35.6327 26.945L37.4045 28.6903C39.8527 31.1017 40.424 32.0399 40.5676 33.886C40.6283 34.6661 40.6761 34.7937 41.0805 35.2538C41.8671 36.1484 42.0706 36.6843 42.071 37.863C42.0713 38.6332 42.0164 39.0068 41.8589 39.3076L41.6464 39.7135L42.6926 41.8742C44.0885 44.7573 44.43 45.8547 44.43 47.4571C44.43 48.5273 44.3908 48.7661 44.1142 49.3781C43.6971 50.3012 42.8871 51.1804 42.0473 51.6215C41.4233 51.9493 41.2633 51.9791 40.1293 51.9791C38.9464 51.9791 38.8598 51.9609 38.1554 51.5648C37.2602 51.0611 36.5605 50.2992 36.1427 49.3728C35.8672 48.762 35.8307 48.5333 35.8372 47.4571C35.8456 46.03 36.1334 44.9713 37.0794 42.8848C37.3967 42.1851 37.6428 41.6065 37.6261 41.5992C36.9048 41.2794 36.3688 40.9426 35.9606 40.5524C35.5077 40.1192 35.3819 40.0629 34.868 40.0629C34.5487 40.0629 33.9837 39.9809 33.6126 39.8805C32.3183 39.5309 31.8033 39.1536 29.7566 37.0557L27.8087 35.0591L20.0526 43.1049L12.2963 51.1507L13.2812 51.9387C15.5776 53.7758 17.0828 54.7082 19.4625 55.7677C24.9081 58.1923 31.122 58.6726 36.889 57.1147C41.4942 55.8706 45.4001 53.5962 48.8065 50.1751C51.129 47.8424 52.758 45.5264 54.1564 42.5683C55.9905 38.6889 56.7758 35.153 56.7758 30.7744C56.7758 28.2034 56.6102 26.699 56.0774 24.4288C55.0879 20.2124 52.9463 15.9942 50.1901 12.8332L49.7323 12.308L42.6825 19.6265ZM17.8081 14.3477C16.9503 14.6315 15.7126 15.9424 15.456 16.839C15.22 17.6633 15.22 17.9754 15.4562 18.8003C15.6228 19.3825 15.8282 19.6523 17.223 21.1222L18.8013 22.7856L18.451 23.1336C17.715 23.8652 17.7368 24.8004 18.5063 25.5012C19.0161 25.9656 19.4904 26.0734 19.9979 25.8402C20.2153 25.7403 21.8397 24.1835 23.6078 22.3807L26.8225 19.1026L26.8186 18.5641C26.8158 18.1795 26.7288 17.9089 26.514 17.6168C25.7969 16.6416 24.8099 16.5982 23.9923 17.5061L23.7031 17.8271L22.2248 16.3072C21.4118 15.4713 20.5219 14.6712 20.2472 14.5294C19.5724 14.1809 18.5439 14.1043 17.8081 14.3477ZM25.1886 24.3937L23.0321 26.5579L24.8379 28.4231L26.6436 30.2885L31.0004 30.2564L35.3572 30.2244L31.4569 26.2218C29.3117 24.0204 27.509 22.2215 27.4508 22.2244C27.3925 22.2272 26.3745 23.2035 25.1886 24.3937ZM0 30.7744C0 32.2196 0.0169672 32.8109 0.0378228 32.0882C0.0586784 31.3655 0.0586784 30.1831 0.0378228 29.4605C0.0169672 28.738 0 29.3291 0 30.7744ZM30.9988 34.6882C32.2439 35.982 33.3153 36.9902 33.5955 37.1315C34.2638 37.4685 35.0181 37.544 35.6518 37.3372L36.182 37.1641L37.0953 38.0913C37.9326 38.9414 38.0488 39.0185 38.4918 39.0185C38.8881 39.0185 39.0365 38.9472 39.3165 38.6221C39.8937 37.9521 39.8051 37.6248 38.7346 36.4731L37.8111 35.4797L37.9822 34.8748C38.1717 34.2045 38.0479 33.2616 37.7033 32.7515C37.5243 32.4864 37.507 32.4854 33.2015 32.4854H28.8792L30.9988 34.6882ZM39.9085 42.7546C39.5033 43.4438 38.625 45.6007 38.4271 46.3925C38.1828 47.3709 38.1963 47.8275 38.4881 48.4528C39.1334 49.8355 41.0004 49.8911 41.7557 48.5502C41.9884 48.1372 42.0189 47.9502 41.9689 47.2446C41.9077 46.3788 41.3787 44.8399 40.5728 43.1824L40.1583 42.3298L39.9085 42.7546Z" fill="#13785A" stroke="white" stroke-width="0.464591" mask="url(#path-1-inside-1_1132_3097)"/>
</svg>
