<svg width="37" height="37" viewBox="0 0 37 37" fill="none" xmlns="http://www.w3.org/2000/svg">
<g clip-path="url(#clip0_810_1667)">
<path d="M34.7474 9.89685C34.5643 9.16519 34.1913 8.49481 33.6662 7.95343C33.1411 7.41205 32.4824 7.01884 31.7566 6.81352C29.1049 6.16602 18.4983 6.16602 18.4983 6.16602C18.4983 6.16602 7.89161 6.16602 5.23994 6.87518C4.5142 7.08051 3.85549 7.47372 3.33035 8.0151C2.80521 8.55648 2.43224 9.22686 2.24911 9.95852C1.76382 12.6496 1.52643 15.3795 1.53994 18.1139C1.52265 20.869 1.76004 23.6197 2.24911 26.331C2.45101 27.0399 2.83233 27.6848 3.35625 28.2033C3.88016 28.7219 4.52896 29.0965 5.23994 29.291C7.89161 30.0002 18.4983 30.0002 18.4983 30.0002C18.4983 30.0002 29.1049 30.0002 31.7566 29.291C32.4824 29.0857 33.1411 28.6925 33.6662 28.1511C34.1913 27.6097 34.5643 26.9393 34.7474 26.2077C35.229 23.5369 35.4664 20.8278 35.4566 18.1139C35.4739 15.3589 35.2365 12.6082 34.7474 9.89685Z" stroke="white" stroke-width="3.20789" stroke-linecap="round" stroke-linejoin="round"/>
<path d="M15.0312 23.1567L23.8958 18.1155L15.0312 13.0742V23.1567Z" stroke="white" stroke-width="3.20789" stroke-linecap="round" stroke-linejoin="round"/>
</g>
<defs>
<clipPath id="clip0_810_1667">
<rect width="37" height="37" fill="white"/>
</clipPath>
</defs>
</svg>
